<?xml version="1.0" standalone="no"?>
<!DOCTYPE svg PUBLIC "-//W3C//DTD SVG 20010904//EN"
 "http://www.w3.org/TR/2001/REC-SVG-20010904/DTD/svg10.dtd">
<svg version="1.0" xmlns="http://www.w3.org/2000/svg"
 width="225.000000pt" height="225.000000pt" viewBox="0 0 225.000000 225.000000"
 preserveAspectRatio="xMidYMid meet">
<metadata>
Created by potrace 1.14, written by Peter Selinger 2001-2017
</metadata>
<g transform="translate(0.000000,225.000000) scale(0.100000,-0.100000)"
fill="#000000" stroke="none">
<path d="M1035 2216 c-67 -21 -100 -43 -139 -90 -43 -53 -66 -103 -66 -146 l0
-30 -415 0 -414 0 -1 -300 0 -300 104 0 104 0 11 45 c6 25 13 45 16 45 3 0 2
-20 -2 -45 l-6 -45 52 0 c33 0 51 -4 51 -12 0 -7 7 -2 16 10 18 26 34 29 34 6
0 -8 -4 -13 -9 -10 -14 9 -21 -20 -8 -33 8 -8 8 -14 2 -19 -6 -4 -16 -19 -22
-34 -11 -24 -16 -26 -47 -21 -28 4 -36 1 -45 -16 -15 -27 -27 -27 -34 -1 -5
18 -12 20 -49 18 l-43 -3 -3 -48 -3 -47 100 0 101 0 0 -55 0 -55 -100 0 -100
0 0 -100 0 -100 -60 0 -60 0 0 -265 0 -265 162 -2 161 -3 10 -30 c11 -34 62
-92 89 -101 19 -6 110 32 157 66 38 26 41 18 41 -121 l0 -109 634 0 635 0 -6
54 c-3 29 -2 97 2 150 l7 96 179 0 179 0 0 265 0 265 -49 0 -50 0 -52 98 c-55
103 -64 113 -86 105 -10 -4 -13 -31 -13 -104 l0 -99 -35 0 c-30 0 -36 -4 -41
-27 -16 -71 -25 -103 -30 -103 -13 0 -54 46 -54 60 0 13 -1 13 -10 0 -8 -12
-10 -10 -11 10 -3 45 -4 48 -12 56 -4 4 -10 -7 -13 -24 -8 -38 -13 -39 -38 -5
-26 35 -12 77 27 81 16 2 27 9 27 18 0 8 -4 13 -9 10 -4 -3 -6 7 -2 22 5 25 6
25 9 4 4 -25 17 -29 26 -6 3 8 2 12 -4 9 -15 -9 -14 -3 21 80 19 46 25 94 21
161 l-4 70 -40 11 c-29 8 -38 8 -35 -1 3 -6 -12 -27 -31 -46 -20 -19 -29 -26
-19 -14 22 27 21 34 -4 34 -16 0 -20 -4 -15 -17 6 -17 5 -17 -8 0 -7 9 -16 17
-19 17 -4 0 -27 13 -52 29 -25 16 -75 39 -111 52 -35 12 -64 25 -63 28 0 3 29
29 64 56 44 35 64 57 65 73 0 39 30 27 30 -13 0 -19 4 -35 10 -35 5 0 7 7 3
15 -3 10 0 15 8 13 8 -2 15 7 17 20 2 13 10 22 20 22 15 0 15 -2 2 -10 -8 -5
-10 -10 -5 -10 6 0 17 4 24 9 12 8 9 11 -12 16 -15 4 -27 11 -27 15 0 5 -3 17
-6 27 -4 13 0 11 16 -7 l21 -25 -6 23 c-6 22 -5 23 15 12 12 -7 19 -18 16 -26
-3 -8 -1 -14 5 -14 7 0 9 12 5 33 -6 31 -4 34 28 47 l34 13 -13 45 c-8 25 -18
48 -22 51 -4 3 11 25 34 49 23 23 40 35 36 25 -4 -10 -2 -14 4 -10 15 9 24
-19 14 -45 -6 -18 -9 -19 -14 -5 -4 10 -14 17 -22 17 -14 0 -12 -5 7 -28 21
-26 28 -29 78 -27 66 3 90 12 90 34 0 9 7 25 15 35 8 11 15 30 15 42 0 13 6
27 13 31 24 15 54 68 60 106 l6 37 -169 -1 c-121 0 -170 -4 -173 -12 -3 -9 -8
-9 -18 1 -9 8 -57 12 -166 12 -115 0 -153 3 -154 13 0 6 -2 31 -4 55 -4 48
-45 125 -79 147 -38 25 -181 65 -229 64 -18 0 -50 -6 -72 -13z m878 -316 c3
-11 1 -20 -4 -20 -4 0 -5 -7 -2 -17 4 -11 3 -14 -5 -9 -7 4 -15 1 -18 -8 -3
-9 -10 -13 -16 -10 -5 3 -4 12 3 20 17 20 3 30 -18 13 -15 -12 -16 -12 -10 4
4 10 7 24 7 30 0 8 3 8 9 -1 6 -10 10 -10 21 3 17 20 27 19 33 -5z m-563 -81
l0 -31 19 23 19 24 11 -29 c10 -24 8 -36 -10 -72 -11 -24 -25 -46 -30 -50 -5
-3 -9 -10 -9 -16 0 -7 23 -9 65 -6 42 2 62 1 55 -6 -5 -5 -34 -8 -65 -7 -46 2
-56 -1 -61 -16 -3 -10 -14 -36 -25 -58 -10 -22 -19 -58 -19 -80 0 -52 -27
-105 -65 -126 -26 -15 -41 -16 -118 -8 -72 8 -94 15 -117 36 -31 27 -60 89
-60 126 0 13 -9 40 -20 62 -11 22 -20 45 -20 52 0 7 -9 13 -21 13 -11 0 -17 5
-14 10 4 6 10 8 15 5 5 -3 8 3 7 14 0 11 -4 18 -9 15 -4 -2 -11 3 -17 13 -12
24 -21 84 -11 78 5 -3 11 1 14 7 3 7 3 -3 0 -23 -4 -22 -1 -39 5 -43 7 -5 11
11 11 48 0 42 4 56 14 56 8 0 16 -6 19 -12 2 -9 26 -13 70 -13 36 0 63 3 61 7
-2 4 5 6 16 5 15 -1 20 -8 20 -31 0 -16 3 -26 7 -23 3 4 6 20 5 37 -1 27 3 30
29 30 16 0 29 -4 29 -9 0 -5 8 -8 18 -6 9 1 25 -2 35 -7 26 -13 42 1 20 18
-16 13 -12 14 38 8 37 -4 59 -2 63 5 13 21 26 11 26 -20z m560 -8 c0 -5 -7
-11 -14 -14 -10 -4 -13 -1 -9 9 6 15 23 19 23 5z m16 -36 c-3 -8 -10 -15 -15
-15 -7 0 -6 10 1 26 12 26 25 16 14 -11z m-189 -71 c-3 -3 -12 -4 -19 -1 -8 3
-5 6 6 6 11 1 17 -2 13 -5z m-1540 -40 c-3 -3 -12 -4 -19 -1 -8 3 -5 6 6 6 11
1 17 -2 13 -5z m208 -174 c4 -11 11 -18 16 -15 5 4 9 -1 9 -9 0 -9 -5 -15 -12
-13 -6 1 -14 -9 -18 -23 -3 -15 -14 -26 -26 -28 -48 -7 -60 72 -14 95 34 17
38 16 45 -7z m-217 -18 c2 -13 -2 -30 -9 -38 -7 -8 -8 -14 -3 -12 5 2 11 -1
14 -7 3 -5 -10 -11 -27 -13 -39 -4 -43 11 -10 46 l22 24 -22 -6 c-16 -5 -23
-3 -23 7 0 36 53 35 58 -1z m410 16 c14 -14 16 -57 3 -76 -4 -8 -19 -12 -32
-10 -19 2 -25 10 -27 36 -5 50 27 79 56 50z m214 -13 c15 -33 -3 -75 -32 -75
-29 0 -47 42 -32 75 7 15 20 25 32 25 12 0 25 -10 32 -25z m636 9 c6 -11 11
-13 16 -5 10 16 33 14 33 -4 0 -8 -4 -12 -8 -9 -17 10 -20 -19 -3 -37 21 -23
10 -38 -16 -21 -12 7 -21 8 -25 2 -14 -23 -25 -6 -25 40 0 50 11 64 28 34z
m-1381 -96 c-3 -8 -6 -5 -6 6 -1 11 2 17 5 13 3 -3 4 -12 1 -19z m622 -60 c7
-21 3 -25 -48 -46 -94 -38 -136 -93 -180 -236 -11 -37 -21 -69 -21 -71 0 -2 9
-1 20 2 14 4 20 0 20 -10 0 -9 -10 -17 -22 -19 -29 -4 -58 -72 -38 -91 10 -9
14 -9 17 1 7 19 23 14 23 -8 0 -32 -22 -70 -41 -70 -10 0 -23 -8 -29 -17 -10
-16 -11 -16 -6 2 2 11 7 30 11 43 5 19 3 22 -19 22 -14 0 -26 5 -26 12 0 9
193 478 207 501 2 4 31 7 64 7 53 0 61 -3 68 -22z m868 -72 c10 -10 -14 -29
-39 -31 -27 -2 -53 26 -35 37 13 8 64 4 74 -6z m-932 -26 c-3 -5 -14 -10 -23
-10 -15 0 -15 2 -2 10 20 13 33 13 25 0z m969 4 c13 -5 14 -9 5 -20 -13 -16
-33 -19 -24 -4 3 6 -1 7 -10 4 -11 -5 -14 -2 -9 10 7 17 14 19 38 10z m51 -54
c-8 -9 -15 -22 -15 -28 0 -6 -18 1 -40 15 -22 15 -38 29 -35 31 2 3 11 0 18
-7 11 -8 18 -6 32 8 14 16 21 18 36 8 16 -10 16 -13 4 -27z m137 -57 c0 -16 0
-39 -1 -53 -1 -14 5 -30 15 -37 10 -7 13 -13 7 -13 -6 0 -9 -10 -7 -22 4 -21
3 -20 -6 2 -6 14 -16 48 -22 75 -6 28 -15 56 -20 63 -8 9 -5 12 11 12 16 0 21
-7 23 -27z m38 -4 c-7 -11 -14 -18 -17 -15 -8 8 5 36 17 36 7 0 7 -6 0 -21z
m-863 -61 c17 -16 23 -33 23 -63 0 -24 3 -56 6 -73 l6 -30 74 0 c44 0 80 -5
89 -12 20 -16 19 -50 -1 -50 -14 0 -14 -1 0 -16 19 -18 20 -30 6 -39 -6 -4 -8
-16 -4 -27 3 -12 2 -18 -3 -15 -5 3 -8 -7 -5 -22 3 -26 0 -30 -32 -41 -20 -6
-40 -19 -46 -28 -5 -10 -10 -12 -10 -5 0 9 -7 10 -26 3 -54 -21 -89 -13 -127
29 -20 22 -43 53 -51 70 -15 29 -15 32 9 67 26 39 62 140 53 149 -3 3 -39 -7
-79 -24 -41 -16 -77 -27 -81 -24 -12 6 -10 51 2 58 6 3 10 -1 10 -11 0 -12 6
-15 23 -11 12 3 47 10 79 17 51 11 56 15 60 42 3 16 -1 40 -8 53 -16 32 1 33
33 3z m864 9 c-6 -8 -8 -17 -4 -21 4 -4 0 -4 -9 -1 -20 8 -12 35 9 35 12 0 13
-3 4 -13z m-424 -149 c-3 -8 -6 -5 -6 6 -1 11 2 17 5 13 3 -3 4 -12 1 -19z
m454 -240 c0 -18 2 -40 4 -50 3 -19 -23 -28 -66 -23 -18 3 -29 -1 -30 -8 0 -7
-4 -3 -9 8 -13 30 -12 38 5 32 8 -4 17 -2 20 3 10 16 35 12 35 -5 0 -8 5 -15
10 -15 6 0 10 9 10 20 0 11 -7 20 -15 20 -8 0 -15 5 -15 11 0 6 -7 3 -16 -5
-21 -22 -44 -20 -44 3 0 15 10 22 43 29 65 15 67 15 68 -20z m-1431 -6 c0 -15
-2 -15 -10 -2 -8 12 -10 12 -10 1 0 -8 -3 -12 -6 -8 -4 3 -4 13 0 22 7 20 26
10 26 -13z m-40 -17 c0 -8 -4 -15 -10 -15 -5 0 -10 7 -10 15 0 8 5 15 10 15 6
0 10 -7 10 -15z m1477 -142 c-3 -10 -5 -4 -5 12 0 17 2 24 5 18 2 -7 2 -21 0
-30z m10 -155 c-3 -8 -6 -5 -6 6 -1 11 2 17 5 13 3 -3 4 -12 1 -19z"/>
<path d="M1255 1810 c3 -5 8 -10 11 -10 2 0 4 5 4 10 0 6 -5 10 -11 10 -5 0
-7 -4 -4 -10z"/>
<path d="M1317 1806 c-14 -11 -15 -15 -3 -19 8 -3 16 2 19 14 3 10 4 19 4 19
-1 0 -10 -7 -20 -14z"/>
<path d="M1142 1780 c0 -14 2 -19 5 -12 2 6 2 18 0 25 -3 6 -5 1 -5 -13z"/>
<path d="M1050 1730 c-9 -6 -10 -10 -3 -10 6 0 15 5 18 10 8 12 4 12 -15 0z"/>
<path d="M1066 1671 c-3 -5 4 -11 16 -14 27 -8 79 3 72 14 -3 5 -13 5 -23 0
-10 -6 -23 -6 -32 0 -18 11 -26 11 -33 0z"/>
<path d="M1055 1599 c-13 -5 9 -8 59 -8 44 -1 77 1 75 3 -10 8 -116 13 -134 5z"/>
<path d="M1108 1563 c7 -3 16 -2 19 1 4 3 -2 6 -13 5 -11 0 -14 -3 -6 -6z"/>
<path d="M967 1498 c3 -13 20 -38 37 -56 30 -32 33 -34 85 -28 66 8 104 25
156 72 38 34 39 35 5 12 -30 -19 -48 -23 -129 -24 -84 -1 -96 2 -121 23 -35
29 -40 29 -33 1z"/>
<path d="M360 1444 c0 -14 4 -23 10 -19 6 3 10 15 10 26 0 10 -4 19 -10 19 -5
0 -10 -12 -10 -26z"/>
<path d="M565 1460 c-3 -5 -1 -18 4 -27 9 -16 10 -14 11 10 0 28 -5 34 -15 17z"/>
<path d="M770 1450 c0 -11 5 -20 10 -20 6 0 10 9 10 20 0 11 -4 20 -10 20 -5
0 -10 -9 -10 -20z"/>
<path d="M1785 631 c-3 -5 -1 -12 5 -16 5 -3 10 1 10 9 0 18 -6 21 -15 7z"/>
<path d="M2144 1900 c-6 -28 -9 -52 -6 -54 2 -3 5 -26 6 -53 2 -32 -8 -80 -29
-146 -30 -90 -48 -123 -147 -269 l-19 -28 70 0 c94 0 165 -17 201 -47 l30 -25
0 172 0 172 -23 -5 c-12 -4 -29 -2 -37 3 -11 7 -5 10 23 10 34 0 37 2 37 30 0
23 -4 30 -20 30 -17 0 -20 7 -20 45 0 38 3 45 20 45 18 0 20 7 20 85 l0 85
-48 0 -48 0 -10 -50z m-29 -410 c3 -6 -4 -14 -17 -19 l-23 -8 23 -7 c30 -10
29 -44 -2 -52 -14 -3 -30 -3 -36 1 -15 9 -1 28 16 21 8 -3 14 -1 14 4 0 5 -9
12 -20 15 -23 7 -26 25 -8 43 15 15 45 16 53 2z"/>
<path d="M1830 1630 c0 -10 -10 -29 -22 -40 -20 -19 -21 -22 -7 -30 9 -5 16
-23 17 -41 0 -17 3 -33 5 -35 9 -9 98 87 112 120 8 19 15 38 15 41 0 3 -27 5
-60 5 -53 0 -60 -2 -60 -20z"/>
<path d="M1710 1455 c0 -8 5 -15 10 -15 6 0 10 7 10 15 0 8 -4 15 -10 15 -5 0
-10 -7 -10 -15z"/>
<path d="M1672 1394 c-11 -12 -10 -17 3 -30 9 -9 19 -13 23 -10 3 4 0 11 -8
17 -13 7 -13 10 -1 18 7 5 9 11 5 14 -5 3 -15 -1 -22 -9z"/>
<path d="M1590 1390 c0 -5 -11 -12 -25 -16 -14 -4 -24 -9 -21 -12 8 -7 66 19
66 29 0 5 -4 9 -10 9 -5 0 -10 -4 -10 -10z"/>
<path d="M2000 1185 l0 -55 53 0 c59 0 87 19 87 58 0 36 -27 52 -86 52 l-54 0
0 -55z"/>
<path d="M2210 1073 c-19 -14 -34 -28 -33 -33 1 -4 18 -34 38 -66 l35 -59 0
93 c0 50 -1 92 -2 91 -2 0 -19 -12 -38 -26z"/>
<path d="M1837 836 c-9 -24 -9 -28 2 -22 15 10 39 -4 46 -27 6 -19 8 -20 12
-5 5 18 -18 48 -35 48 -6 0 -12 5 -14 12 -3 7 -7 5 -11 -6z"/>
</g>
</svg>
